<svg xmlns="http://www.w3.org/2000/svg" viewBox="0 0 80 80" fill="none">
  <!--
    Prep It List It Sell It - Icon Logo
    Geometric house with stacked zine blocks
    Primary use: Favicon, Avatar, Small spaces
  -->

  <!-- Background circle (optional, can be removed) -->
  <!-- <circle cx="40" cy="40" r="38" fill="#0F172A"/> -->

  <!-- Main house group - rotated for zine effect -->
  <g transform="rotate(-6, 40, 42)">
    <!-- Shadow layer -->
    <g transform="translate(4, 4)" opacity="0.25">
      <rect x="18" y="38" width="44" height="34" fill="#000"/>
      <polygon points="40,12 12,42 68,42" fill="#000"/>
    </g>

    <!-- House body - green -->
    <rect x="18" y="38" width="44" height="34" fill="#16A34A"/>
    <rect x="18" y="38" width="44" height="34" stroke="#0F172A" stroke-width="2.5" fill="none"/>

    <!-- Roof - amber -->
    <polygon points="40,12 12,42 68,42" fill="#F59E0B"/>
    <polygon points="40,12 12,42 68,42" stroke="#0F172A" stroke-width="2.5" fill="none"/>

    <!-- Door -->
    <rect x="32" y="52" width="16" height="20" fill="#0F172A"/>

    <!-- Window - top left -->
    <rect x="22" y="44" width="8" height="8" fill="#0F172A"/>

    <!-- Window - top right -->
    <rect x="50" y="44" width="8" height="8" fill="#0F172A"/>

    <!-- Chimney -->
    <rect x="52" y="18" width="8" height="16" fill="#16A34A" stroke="#0F172A" stroke-width="2"/>
  </g>

  <!-- Three small blocks stacked - representing PREP/LIST/SELL -->
  <g transform="translate(2, 2)">
    <!-- Block 1 - PREP -->
    <g transform="rotate(-8, 12, 20)">
      <rect x="4" y="14" width="16" height="6" fill="#16A34A"/>
      <rect x="4" y="14" width="16" height="6" stroke="#0F172A" stroke-width="1.5" fill="none"/>
    </g>
    <!-- Block 2 - LIST (outline) -->
    <g transform="rotate(4, 12, 28)">
      <rect x="6" y="22" width="14" height="6" fill="transparent" stroke="#16A34A" stroke-width="1.5"/>
    </g>
    <!-- Block 3 - SELL -->
    <g transform="rotate(-5, 12, 36)">
      <rect x="3" y="30" width="16" height="6" fill="#16A34A"/>
      <rect x="3" y="30" width="16" height="6" stroke="#0F172A" stroke-width="1.5" fill="none"/>
    </g>
  </g>
</svg>
